# MagicaVoxel @ Ephtracy

# group
o 

# material
mtllib Grass.mtl
usemtl palette

# normals
vn -1 0 0
vn 1 0 0
vn 0 0 1
vn 0 0 -1
vn 0 -1 0
vn 0 1 0

# texcoords
vt 0.0332031 0.5
vt 0.0644531 0.5
vt 0.0683594 0.5
vt 0.201172 0.5
vt 0.369141 0.5
vt 0.396484 0.5
vt 0.486328 0.5
vt 0.603516 0.5
vt 0.623047 0.5
vt 0.654297 0.5
vt 0.677734 0.5
vt 0.767578 0.5
vt 0.958984 0.5
vt 0.966797 0.5
vt 0.970703 0.5
vt 0.974609 0.5
vt 0.978516 0.5
vt 0.982422 0.5

# verts
v -1 0 1
v -1 0 -1
v -1 0.2 0.7
v -1 0.2 0.5
v -1 0.3 0.7
v -1 0.3 0.5
v -1 0.4 0.3
v -1 0.4 -0.1
v -1 0.4 -0.9
v -1 0.4 -1
v -1 0.5 0.3
v -1 0.5 -0.1
v -1 0.5 -0.9
v -1 0.5 -1
v -1 0.8 -0.3
v -1 0.8 -0.7
v -1 0.9 0.5
v -1 0.9 0.3
v -1 0.9 -0.3
v -1 0.9 -0.7
v -1 1 0.9
v -1 1 0.5
v -1 1 0.3
v -1 1 -0.8
v -1 1 -1
v -1 1.1 1
v -1 1.1 0.9
v -1 1.1 0.5
v -1 1.1 0.4
v -1 1.1 -0.2
v -1 1.1 -0.8
v -1 1.2 0
v -1 1.2 -0.2
v -1 1.3 0.4
v -1 1.3 0.1
v -1 1.4 0.1
v -1 1.4 0
v -1 1.9 0.9
v -1 1.9 0.8
v -1 2 1
v -1 2 0.9
v -1 2 0.8
v -1 2 -1
v 1 0 1
v 1 0 -1
v 1 0.1 0.1
v 1 0.1 -0.6
v 1 0.2 0.1
v 1 0.2 -0.6
v 1 0.5 0.7
v 1 0.5 0.2
v 1 0.6 0.7
v 1 0.6 0.2
v 1 0.6 -0.8
v 1 0.6 -0.9
v 1 0.7 -0.8
v 1 0.7 -0.9
v 1 0.9 0.1
v 1 0.9 -0.2
v 1 1 0.1
v 1 1 -0.2
v 1 1.1 0.7
v 1 1.1 0.2
v 1 1.1 -0.5
v 1 1.1 -0.6
v 1 1.2 0.9
v 1 1.2 0.7
v 1 1.2 0.2
v 1 1.2 0.1
v 1 1.2 -0.4
v 1 1.2 -0.5
v 1 1.2 -0.9
v 1 1.2 -1
v 1 1.3 1
v 1 1.3 0.9
v 1 1.3 0.1
v 1 1.3 0
v 1 1.3 -0.4
v 1 1.3 -0.6
v 1 1.4 -0.7
v 1 1.4 -0.9
v 1 1.5 0
v 1 1.5 -0.7
v 1 2 1
v 1 2 -1
v -1 0 1
v -1 1.1 1
v -1 2 1
v -0.9 0.2 1
v -0.9 0.3 1
v -0.8 1.1 1
v -0.8 1.2 1
v -0.7 1.2 1
v -0.7 1.3 1
v -0.6 1.3 1
v -0.6 1.4 1
v -0.5 0.6 1
v -0.5 0.7 1
v -0.5 1.4 1
v -0.5 1.5 1
v -0.4 0.2 1
v -0.4 0.3 1
v -0.4 0.6 1
v -0.4 0.7 1
v -0.2 1 1
v -0.2 1.1 1
v -0.2 1.3 1
v -0.2 1.5 1
v 0 1.2 1
v 0 1.3 1
v 0.1 1 1
v 0.1 1.1 1
v 0.1 1.2 1
v 0.4 0.1 1
v 0.4 0.2 1
v 0.5 0.2 1
v 0.5 0.3 1
v 0.5 1.1 1
v 0.5 1.2 1
v 0.6 0.1 1
v 0.6 0.2 1
v 0.6 0.5 1
v 0.6 0.6 1
v 0.7 0.2 1
v 0.7 0.3 1
v 0.7 0.5 1
v 0.7 0.6 1
v 0.7 1.2 1
v 0.7 1.3 1
v 0.8 1.3 1
v 0.8 1.4 1
v 0.9 1.3 1
v 0.9 1.4 1
v 1 0 1
v 1 1.3 1
v 1 2 1
v -1 0 -1
v -1 0.4 -1
v -1 0.5 -1
v -1 1 -1
v -1 2 -1
v -0.9 0.4 -1
v -0.9 0.5 -1
v -0.7 1 -1
v -0.7 1.1 -1
v -0.6 1.1 -1
v -0.6 1.2 -1
v -0.5 0.3 -1
v -0.5 0.4 -1
v -0.5 1.2 -1
v -0.5 1.3 -1
v -0.4 1.1 -1
v -0.4 1.2 -1
v -0.4 1.3 -1
v -0.4 1.4 -1
v -0.2 0.3 -1
v -0.2 0.4 -1
v -0.2 1.1 -1
v -0.2 1.2 -1
v -0.1 1.3 -1
v -0.1 1.4 -1
v 0 1.2 -1
v 0 1.3 -1
v 0.1 1 -1
v 0.1 1.1 -1
v 0.2 1 -1
v 0.2 1.1 -1
v 0.4 0.8 -1
v 0.4 0.9 -1
v 0.4 1.2 -1
v 0.4 1.3 -1
v 0.5 0.3 -1
v 0.5 0.4 -1
v 0.5 1.3 -1
v 0.5 1.5 -1
v 0.6 0.3 -1
v 0.6 0.4 -1
v 0.7 1.4 -1
v 0.7 1.5 -1
v 0.8 0.8 -1
v 0.8 0.9 -1
v 0.8 1.3 -1
v 0.8 1.4 -1
v 0.9 1.2 -1
v 0.9 1.3 -1
v 1 0 -1
v 1 1.2 -1
v 1 2 -1
v -1 0 1
v 1 0 1
v -1 0 -1
v 1 0 -1
v -1 2 1
v 1 2 1
v -1 2 0.9
v -0.7 2 0.9
v -1 2 0.8
v -0.7 2 0.8
v 0.4 2 0.8
v 0.9 2 0.8
v 0.4 2 0.7
v 0.9 2 0.7
v -0.5 2 0.4
v 0.2 2 0.4
v -0.5 2 0.3
v 0.2 2 0.3
v -0.9 2 -0.1
v -0.6 2 -0.1
v 0.2 2 -0.1
v 0.7 2 -0.1
v -0.9 2 -0.2
v -0.6 2 -0.2
v 0.2 2 -0.2
v 0.7 2 -0.2
v -0.8 2 -0.6
v -0.5 2 -0.6
v 0 2 -0.6
v 0.4 2 -0.6
v -0.8 2 -0.7
v -0.5 2 -0.7
v 0 2 -0.7
v 0.4 2 -0.7
v -1 2 -1
v 1 2 -1

# faces
f 3/5/1 2/5/1 1/5/1
f 4/5/1 2/5/1 3/5/1
f 5/5/1 3/5/1 1/5/1
f 5/6/1 4/6/1 3/6/1
f 6/5/1 2/5/1 4/5/1
f 6/6/1 4/6/1 5/6/1
f 7/5/1 6/5/1 5/5/1
f 7/5/1 2/5/1 6/5/1
f 8/5/1 2/5/1 7/5/1
f 9/5/1 2/5/1 8/5/1
f 10/5/1 2/5/1 9/5/1
f 11/5/1 7/5/1 5/5/1
f 11/6/1 8/6/1 7/6/1
f 12/5/1 9/5/1 8/5/1
f 12/6/1 8/6/1 11/6/1
f 13/6/1 10/6/1 9/6/1
f 13/5/1 9/5/1 12/5/1
f 14/6/1 10/6/1 13/6/1
f 15/5/1 12/5/1 11/5/1
f 15/5/1 13/5/1 12/5/1
f 15/5/1 14/5/1 13/5/1
f 16/5/1 14/5/1 15/5/1
f 17/5/1 11/5/1 5/5/1
f 17/5/1 15/5/1 11/5/1
f 18/5/1 15/5/1 17/5/1
f 19/6/1 16/6/1 15/6/1
f 19/5/1 15/5/1 18/5/1
f 20/5/1 14/5/1 16/5/1
f 20/6/1 16/6/1 19/6/1
f 21/5/1 5/5/1 1/5/1
f 21/5/1 17/5/1 5/5/1
f 22/6/1 18/6/1 17/6/1
f 22/5/1 17/5/1 21/5/1
f 23/5/1 19/5/1 18/5/1
f 23/6/1 18/6/1 22/6/1
f 23/5/1 20/5/1 19/5/1
f 24/5/1 14/5/1 20/5/1
f 24/5/1 20/5/1 23/5/1
f 25/5/1 14/5/1 24/5/1
f 26/5/1 21/5/1 1/5/1
f 27/10/1 22/10/1 21/10/1
f 27/5/1 21/5/1 26/5/1
f 28/5/1 23/5/1 22/5/1
f 28/10/1 22/10/1 27/10/1
f 28/5/1 24/5/1 23/5/1
f 29/5/1 24/5/1 28/5/1
f 30/5/1 24/5/1 29/5/1
f 31/10/1 25/10/1 24/10/1
f 31/5/1 24/5/1 30/5/1
f 32/5/1 30/5/1 29/5/1
f 33/10/1 31/10/1 30/10/1
f 33/5/1 30/5/1 32/5/1
f 34/10/1 27/10/1 26/10/1
f 34/10/1 28/10/1 27/10/1
f 34/10/1 29/10/1 28/10/1
f 34/5/1 32/5/1 29/5/1
f 35/5/1 32/5/1 34/5/1
f 36/10/1 35/10/1 34/10/1
f 36/5/1 32/5/1 35/5/1
f 37/10/1 33/10/1 32/10/1
f 37/5/1 32/5/1 36/5/1
f 38/10/1 36/10/1 34/10/1
f 38/10/1 34/10/1 26/10/1
f 38/10/1 37/10/1 36/10/1
f 39/10/1 37/10/1 38/10/1
f 40/10/1 38/10/1 26/10/1
f 41/11/1 39/11/1 38/11/1
f 41/10/1 38/10/1 40/10/1
f 42/10/1 37/10/1 39/10/1
f 42/11/1 39/11/1 41/11/1
f 43/10/1 31/10/1 33/10/1
f 43/10/1 37/10/1 42/10/1
f 43/10/1 25/10/1 31/10/1
f 43/10/1 33/10/1 37/10/1
f 44/5/2 45/5/2 46/5/2
f 46/5/2 45/5/2 47/5/2
f 44/5/2 46/5/2 48/5/2
f 46/6/2 47/6/2 48/6/2
f 47/5/2 45/5/2 49/5/2
f 48/6/2 47/6/2 49/6/2
f 44/5/2 48/5/2 50/5/2
f 48/5/2 49/5/2 50/5/2
f 50/5/2 49/5/2 51/5/2
f 44/5/2 50/5/2 52/5/2
f 50/6/2 51/6/2 52/6/2
f 51/5/2 49/5/2 53/5/2
f 52/6/2 51/6/2 53/6/2
f 49/5/2 45/5/2 54/5/2
f 53/5/2 49/5/2 54/5/2
f 54/5/2 45/5/2 55/5/2
f 52/5/2 53/5/2 56/5/2
f 53/5/2 54/5/2 56/5/2
f 54/6/2 55/6/2 56/6/2
f 55/5/2 45/5/2 57/5/2
f 56/6/2 55/6/2 57/6/2
f 52/5/2 56/5/2 58/5/2
f 56/5/2 57/5/2 58/5/2
f 58/5/2 57/5/2 59/5/2
f 52/5/2 58/5/2 60/5/2
f 58/6/2 59/6/2 60/6/2
f 59/5/2 57/5/2 61/5/2
f 60/6/2 59/6/2 61/6/2
f 44/5/2 52/5/2 62/5/2
f 52/5/2 60/5/2 62/5/2
f 60/5/2 61/5/2 62/5/2
f 62/5/2 61/5/2 63/5/2
f 61/5/2 57/5/2 64/5/2
f 63/5/2 61/5/2 64/5/2
f 64/5/2 57/5/2 65/5/2
f 44/5/2 62/5/2 66/5/2
f 62/10/2 63/10/2 67/10/2
f 66/5/2 62/5/2 67/5/2
f 63/5/2 64/5/2 68/5/2
f 67/10/2 63/10/2 68/10/2
f 68/5/2 64/5/2 69/5/2
f 69/5/2 64/5/2 70/5/2
f 64/6/2 65/6/2 71/6/2
f 70/5/2 64/5/2 71/5/2
f 57/5/2 45/5/2 72/5/2
f 65/5/2 57/5/2 72/5/2
f 72/5/2 45/5/2 73/5/2
f 44/5/2 66/5/2 74/5/2
f 66/10/2 67/10/2 75/10/2
f 74/5/2 66/5/2 75/5/2
f 67/10/2 68/10/2 75/10/2
f 68/10/2 69/10/2 75/10/2
f 69/5/2 70/5/2 76/5/2
f 75/10/2 69/10/2 76/10/2
f 76/5/2 70/5/2 77/5/2
f 70/6/2 71/6/2 78/6/2
f 77/5/2 70/5/2 78/5/2
f 71/6/2 65/6/2 79/6/2
f 78/6/2 71/6/2 79/6/2
f 65/5/2 72/5/2 79/5/2
f 77/5/2 78/5/2 80/5/2
f 79/5/2 72/5/2 80/5/2
f 78/5/2 79/5/2 80/5/2
f 72/10/2 73/10/2 81/10/2
f 80/5/2 72/5/2 81/5/2
f 75/10/2 76/10/2 82/10/2
f 76/10/2 77/10/2 82/10/2
f 74/10/2 75/10/2 82/10/2
f 77/5/2 80/5/2 82/5/2
f 80/10/2 81/10/2 83/10/2
f 82/5/2 80/5/2 83/5/2
f 74/10/2 82/10/2 84/10/2
f 82/10/2 83/10/2 84/10/2
f 81/10/2 73/10/2 85/10/2
f 84/10/2 83/10/2 85/10/2
f 83/10/2 81/10/2 85/10/2
f 89/5/3 87/5/3 86/5/3
f 90/5/3 87/5/3 89/5/3
f 91/10/3 88/10/3 87/10/3
f 91/5/3 87/5/3 90/5/3
f 92/10/3 88/10/3 91/10/3
f 93/5/3 92/5/3 91/5/3
f 93/10/3 88/10/3 92/10/3
f 94/10/3 88/10/3 93/10/3
f 95/5/3 94/5/3 93/5/3
f 95/10/3 88/10/3 94/10/3
f 96/10/3 88/10/3 95/10/3
f 97/5/3 91/5/3 90/5/3
f 97/5/3 93/5/3 91/5/3
f 97/5/3 96/5/3 95/5/3
f 97/5/3 95/5/3 93/5/3
f 98/5/3 96/5/3 97/5/3
f 99/10/3 88/10/3 96/10/3
f 99/5/3 96/5/3 98/5/3
f 100/10/3 88/10/3 99/10/3
f 101/6/3 90/6/3 89/6/3
f 101/5/3 89/5/3 86/5/3
f 102/5/3 97/5/3 90/5/3
f 102/6/3 90/6/3 101/6/3
f 103/6/3 98/6/3 97/6/3
f 103/5/3 97/5/3 102/5/3
f 104/5/3 100/5/3 99/5/3
f 104/6/3 98/6/3 103/6/3
f 104/5/3 99/5/3 98/5/3
f 105/5/3 103/5/3 102/5/3
f 105/5/3 100/5/3 104/5/3
f 105/5/3 104/5/3 103/5/3
f 105/5/3 102/5/3 101/5/3
f 106/5/3 100/5/3 105/5/3
f 107/5/3 100/5/3 106/5/3
f 108/10/3 88/10/3 100/10/3
f 108/5/3 100/5/3 107/5/3
f 109/5/3 107/5/3 106/5/3
f 110/10/3 108/10/3 107/10/3
f 110/5/3 107/5/3 109/5/3
f 111/5/3 105/5/3 101/5/3
f 111/6/3 106/6/3 105/6/3
f 112/5/3 109/5/3 106/5/3
f 112/6/3 106/6/3 111/6/3
f 113/10/3 110/10/3 109/10/3
f 113/5/3 109/5/3 112/5/3
f 114/5/3 101/5/3 86/5/3
f 114/5/3 112/5/3 111/5/3
f 114/5/3 111/5/3 101/5/3
f 115/5/3 112/5/3 114/5/3
f 116/6/3 115/6/3 114/6/3
f 116/5/3 112/5/3 115/5/3
f 117/5/3 112/5/3 116/5/3
f 118/10/3 113/10/3 112/10/3
f 118/5/3 112/5/3 117/5/3
f 119/10/3 110/10/3 113/10/3
f 119/10/3 113/10/3 118/10/3
f 120/6/3 117/6/3 116/6/3
f 120/5/3 114/5/3 86/5/3
f 120/6/3 116/6/3 114/6/3
f 121/6/3 117/6/3 120/6/3
f 122/5/3 118/5/3 117/5/3
f 122/5/3 119/5/3 118/5/3
f 123/5/3 119/5/3 122/5/3
f 124/6/3 117/6/3 121/6/3
f 124/5/3 121/5/3 120/5/3
f 125/5/3 122/5/3 117/5/3
f 125/6/3 117/6/3 124/6/3
f 126/6/3 123/6/3 122/6/3
f 126/5/3 122/5/3 125/5/3
f 127/5/3 119/5/3 123/5/3
f 127/6/3 123/6/3 126/6/3
f 128/10/3 110/10/3 119/10/3
f 128/5/3 119/5/3 127/5/3
f 129/10/3 108/10/3 110/10/3
f 129/10/3 110/10/3 128/10/3
f 130/5/3 126/5/3 125/5/3
f 130/10/3 108/10/3 129/10/3
f 130/5/3 129/5/3 128/5/3
f 130/5/3 128/5/3 127/5/3
f 130/5/3 127/5/3 126/5/3
f 130/5/3 125/5/3 124/5/3
f 131/10/3 108/10/3 130/10/3
f 132/5/3 130/5/3 124/5/3
f 132/5/3 131/5/3 130/5/3
f 133/10/3 108/10/3 131/10/3
f 133/5/3 131/5/3 132/5/3
f 134/5/3 124/5/3 120/5/3
f 134/5/3 120/5/3 86/5/3
f 134/5/3 132/5/3 124/5/3
f 135/10/3 133/10/3 132/10/3
f 135/5/3 132/5/3 134/5/3
f 136/10/3 88/10/3 108/10/3
f 136/10/3 133/10/3 135/10/3
f 136/10/3 108/10/3 133/10/3
f 137/5/4 138/5/4 142/5/4
f 138/6/4 139/6/4 142/6/4
f 139/5/4 140/5/4 143/5/4
f 142/6/4 139/6/4 143/6/4
f 140/10/4 141/10/4 144/10/4
f 143/5/4 140/5/4 144/5/4
f 142/5/4 143/5/4 144/5/4
f 144/10/4 141/10/4 145/10/4
f 144/5/4 145/5/4 146/5/4
f 145/10/4 141/10/4 146/10/4
f 146/10/4 141/10/4 147/10/4
f 137/5/4 142/5/4 148/5/4
f 142/5/4 144/5/4 148/5/4
f 146/5/4 147/5/4 148/5/4
f 144/5/4 146/5/4 148/5/4
f 148/5/4 147/5/4 149/5/4
f 147/10/4 141/10/4 150/10/4
f 149/5/4 147/5/4 150/5/4
f 150/10/4 141/10/4 151/10/4
f 149/5/4 150/5/4 152/5/4
f 150/5/4 151/5/4 152/5/4
f 152/5/4 151/5/4 153/5/4
f 151/10/4 141/10/4 154/10/4
f 153/5/4 151/5/4 154/5/4
f 154/10/4 141/10/4 155/10/4
f 148/6/4 149/6/4 156/6/4
f 137/5/4 148/5/4 156/5/4
f 149/5/4 152/5/4 157/5/4
f 156/6/4 149/6/4 157/6/4
f 152/6/4 153/6/4 158/6/4
f 157/5/4 152/5/4 158/5/4
f 154/5/4 155/5/4 159/5/4
f 158/6/4 153/6/4 159/6/4
f 153/5/4 154/5/4 159/5/4
f 157/5/4 158/5/4 160/5/4
f 159/5/4 155/5/4 160/5/4
f 158/5/4 159/5/4 160/5/4
f 156/5/4 157/5/4 160/5/4
f 155/10/4 141/10/4 161/10/4
f 160/5/4 155/5/4 161/5/4
f 156/5/4 160/5/4 162/5/4
f 160/10/4 161/10/4 163/10/4
f 162/5/4 160/5/4 163/5/4
f 156/5/4 162/5/4 164/5/4
f 164/5/4 162/5/4 165/5/4
f 156/5/4 164/5/4 166/5/4
f 164/6/4 165/6/4 166/6/4
f 165/5/4 162/5/4 167/5/4
f 166/6/4 165/6/4 167/6/4
f 156/5/4 166/5/4 168/5/4
f 166/5/4 167/5/4 168/5/4
f 168/5/4 167/5/4 169/5/4
f 162/10/4 163/10/4 170/10/4
f 169/5/4 167/5/4 170/5/4
f 167/5/4 162/5/4 170/5/4
f 163/10/4 161/10/4 171/10/4
f 170/10/4 163/10/4 171/10/4
f 137/5/4 156/5/4 172/5/4
f 156/5/4 168/5/4 172/5/4
f 172/5/4 168/5/4 173/5/4
f 171/10/4 161/10/4 174/10/4
f 169/5/4 170/5/4 174/5/4
f 170/5/4 171/5/4 174/5/4
f 161/10/4 141/10/4 175/10/4
f 174/10/4 161/10/4 175/10/4
f 172/6/4 173/6/4 176/6/4
f 137/5/4 172/5/4 176/5/4
f 173/5/4 168/5/4 177/5/4
f 176/6/4 173/6/4 177/6/4
f 174/5/4 175/5/4 178/5/4
f 175/10/4 141/10/4 179/10/4
f 178/5/4 175/5/4 179/5/4
f 168/6/4 169/6/4 180/6/4
f 177/5/4 168/5/4 180/5/4
f 176/5/4 177/5/4 180/5/4
f 169/5/4 174/5/4 181/5/4
f 180/6/4 169/6/4 181/6/4
f 174/5/4 178/5/4 181/5/4
f 181/5/4 178/5/4 182/5/4
f 178/10/4 179/10/4 183/10/4
f 182/5/4 178/5/4 183/5/4
f 181/5/4 182/5/4 184/5/4
f 180/5/4 181/5/4 184/5/4
f 182/10/4 183/10/4 185/10/4
f 184/5/4 182/5/4 185/5/4
f 176/5/4 180/5/4 186/5/4
f 137/5/4 176/5/4 186/5/4
f 180/5/4 184/5/4 186/5/4
f 184/10/4 185/10/4 187/10/4
f 186/5/4 184/5/4 187/5/4
f 185/10/4 183/10/4 188/10/4
f 187/10/4 185/10/4 188/10/4
f 183/10/4 179/10/4 188/10/4
f 179/10/4 141/10/4 188/10/4
f 191/5/5 190/5/5 189/5/5
f 192/5/5 190/5/5 191/5/5
f 193/10/6 194/10/6 195/10/6
f 195/10/6 194/10/6 196/10/6
f 195/11/6 196/11/6 197/11/6
f 196/10/6 194/10/6 198/10/6
f 197/11/6 196/11/6 198/11/6
f 198/10/6 194/10/6 199/10/6
f 199/10/6 194/10/6 200/10/6
f 197/10/6 198/10/6 201/10/6
f 198/10/6 199/10/6 201/10/6
f 199/11/6 200/11/6 201/11/6
f 200/10/6 194/10/6 202/10/6
f 201/11/6 200/11/6 202/11/6
f 197/10/6 201/10/6 203/10/6
f 201/10/6 202/10/6 203/10/6
f 203/10/6 202/10/6 204/10/6
f 197/10/6 203/10/6 205/10/6
f 203/11/6 204/11/6 205/11/6
f 204/10/6 202/10/6 206/10/6
f 205/11/6 204/11/6 206/11/6
f 197/10/6 205/10/6 207/10/6
f 205/10/6 206/10/6 207/10/6
f 207/10/6 206/10/6 208/10/6
f 206/10/6 202/10/6 209/10/6
f 208/10/6 206/10/6 209/10/6
f 209/10/6 202/10/6 210/10/6
f 207/11/6 208/11/6 211/11/6
f 197/10/6 207/10/6 211/10/6
f 208/10/6 209/10/6 212/10/6
f 211/11/6 208/11/6 212/11/6
f 209/11/6 210/11/6 213/11/6
f 212/10/6 209/10/6 213/10/6
f 210/10/6 202/10/6 214/10/6
f 213/11/6 210/11/6 214/11/6
f 212/10/6 213/10/6 215/10/6
f 211/10/6 212/10/6 215/10/6
f 213/10/6 214/10/6 215/10/6
f 215/10/6 214/10/6 216/10/6
f 216/10/6 214/10/6 217/10/6
f 217/10/6 214/10/6 218/10/6
f 211/10/6 215/10/6 219/10/6
f 215/11/6 216/11/6 219/11/6
f 216/10/6 217/10/6 220/10/6
f 219/11/6 216/11/6 220/11/6
f 217/11/6 218/11/6 221/11/6
f 220/10/6 217/10/6 221/10/6
f 218/10/6 214/10/6 222/10/6
f 221/11/6 218/11/6 222/11/6
f 197/10/6 211/10/6 223/10/6
f 220/10/6 221/10/6 223/10/6
f 221/10/6 222/10/6 223/10/6
f 211/10/6 219/10/6 223/10/6
f 219/10/6 220/10/6 223/10/6
f 202/10/6 194/10/6 224/10/6
f 223/10/6 222/10/6 224/10/6
f 214/10/6 202/10/6 224/10/6
f 222/10/6 214/10/6 224/10/6
