# MagicaVoxel @ Ephtracy

# group
o 

# material
mtllib player.mtl
usemtl palette

# normals
vn -1 0 0
vn 1 0 0
vn 0 0 1
vn 0 0 -1
vn 0 -1 0
vn 0 1 0

# texcoords
vt 0.00195312 0.5
vt 0.00976562 0.5
vt 0.0332031 0.5
vt 0.0410156 0.5
vt 0.0683594 0.5
vt 0.0839844 0.5
vt 0.767578 0.5
vt 0.958984 0.5
vt 0.966797 0.5
vt 0.970703 0.5
vt 0.974609 0.5
vt 0.978516 0.5
vt 0.994141 0.5

# verts
v -0.5 0.3 -2.98023e-08
v -0.5 0.3 -0.1
v -0.5 0.4 -2.98023e-08
v -0.5 0.4 -0.1
v -0.4 0.4 -2.98023e-08
v -0.4 0.4 -0.1
v -0.4 0.5 -2.98023e-08
v -0.4 0.5 -0.1
v -0.4 0.8 0.1
v -0.4 0.8 -0.2
v -0.4 0.9 0.2
v -0.4 0.9 0.1
v -0.4 0.9 -0.2
v -0.4 0.9 -0.3
v -0.4 1 0.3
v -0.4 1 0.2
v -0.4 1.2 0.3
v -0.4 1.2 0.2
v -0.4 1.2 -0.3
v -0.3 0.3 0.2
v -0.3 0.3 0.1
v -0.3 0.3 -2.98023e-08
v -0.3 0.3 -0.1
v -0.3 0.3 -0.2
v -0.3 0.3 -0.3
v -0.3 0.4 0.2
v -0.3 0.4 0.1
v -0.3 0.4 -2.98023e-08
v -0.3 0.4 -0.1
v -0.3 0.4 -0.2
v -0.3 0.4 -0.3
v -0.3 0.5 0.1
v -0.3 0.5 -2.98023e-08
v -0.3 0.5 -0.1
v -0.3 0.6 -2.98023e-08
v -0.3 0.6 -0.1
v -0.3 0.6 -0.2
v -0.3 0.7 0.2
v -0.3 0.7 0.1
v -0.3 0.7 -2.98023e-08
v -0.3 0.7 -0.1
v -0.3 0.7 -0.2
v -0.3 0.7 -0.3
v -0.3 0.8 0.1
v -0.3 0.8 -2.98023e-08
v -0.3 0.8 -0.2
v -0.3 0.9 0.3
v -0.3 0.9 0.2
v -0.3 0.9 0.1
v -0.3 0.9 -0.2
v -0.3 0.9 -0.3
v -0.3 0.9 -0.4
v -0.3 1 0.3
v -0.3 1 0.2
v -0.3 1.2 0.3
v -0.3 1.2 0.2
v -0.3 1.2 -0.3
v -0.3 1.2 -0.4
v -0.3 1.3 0.3
v -0.3 1.3 0.2
v -0.3 1.3 -0.3
v -0.2 0 -2.98023e-08
v -0.2 0 -0.1
v -0.2 0.2 -2.98023e-08
v -0.2 0.2 -0.1
v -0.2 0.3 -2.98023e-08
v -0.2 0.3 -0.1
v -0.2 0.4 0.1
v -0.2 0.4 -2.98023e-08
v -0.2 0.4 -0.1
v -0.2 0.4 -0.2
v -0.2 0.5 0.1
v -0.2 0.5 -2.98023e-08
v -0.2 0.5 -0.1
v -0.2 0.5 -0.2
v -0.2 0.5 -0.3
v -0.2 0.6 0.2
v -0.2 0.6 0.1
v -0.2 0.6 -0.1
v -0.2 0.6 -0.2
v -0.2 0.6 -0.3
v -0.2 0.7 0.2
v -0.2 0.7 0.1
v -0.2 0.7 -2.98023e-08
v -0.2 0.7 -0.2
v -0.2 0.7 -0.3
v -0.2 0.7 -0.4
v -0.2 0.8 0.1
v -0.2 0.8 -2.98023e-08
v -0.2 0.9 -0.3
v -0.2 0.9 -0.4
v -0.2 0.9 -0.5
v -0.2 1.2 -0.4
v -0.2 1.2 -0.5
v -0.2 1.3 0.1
v -0.2 1.3 -0.2
v -0.2 1.4 0.1
v -0.2 1.4 -0.2
v -0.1 0.2 -0.4
v -0.1 0.2 -0.5
v -0.1 0.3 -0.3
v -0.1 0.3 -0.4
v -0.1 0.4 -0.2
v -0.1 0.4 -0.3
v -0.1 0.4 -0.4
v -0.1 0.4 -0.5
v -0.1 0.5 -0.2
v -0.1 0.5 -0.3
v -0.1 0.5 -0.4
v -0.1 0.6 -0.3
v -0.1 0.6 -0.4
v -0.1 0.7 -0.3
v -0.1 0.7 -0.4
v -0.1 0.9 0.2
v -0.1 0.9 0.1
v -0.1 1 0.2
v -0.1 1 0.1
v 0 0.1 -0.4
v 0 0.1 -0.6
v 0 0.2 -0.4
v 0 0.2 -0.5
v 0 0.2 -0.6
v 0.1 0 -2.98023e-08
v 0.1 0 -0.1
v 0.1 0.2 -2.98023e-08
v 0.1 0.2 -0.1
v 0.1 0.3 -2.98023e-08
v 0.1 0.3 -0.1
v 0.1 0.6 0.2
v 0.1 0.6 0.1
v 0.1 0.7 0.2
v 0.1 0.7 0.1
v 0.1 0.9 -0.4
v 0.1 0.9 -0.5
v 0.1 1 -0.4
v 0.1 1 -0.5
v 0.2 0 -0.5
v 0.2 0 -0.6
v 0.2 0.1 -0.5
v 0.2 0.1 -0.6
v 0.2 0.7 0.2
v 0.2 0.7 0.1
v 0.2 0.8 0.1
v 0.2 0.9 0.2
v 0.2 0.9 0.1
v 0.2 1 0.2
v 0.2 1 0.1
v 0.3 0.5 -2.98023e-08
v 0.3 0.5 -0.1
v 0.3 0.6 -2.98023e-08
v 0.3 0.6 -0.1
v 0.4 0.4 -2.98023e-08
v 0.4 0.4 -0.1
v 0.4 0.5 -2.98023e-08
v 0.4 0.5 -0.1
v -0.4 0.3 -2.98023e-08
v -0.4 0.3 -0.1
v -0.4 0.4 -2.98023e-08
v -0.4 0.4 -0.1
v -0.3 0.4 -2.98023e-08
v -0.3 0.4 -0.1
v -0.3 0.5 -2.98023e-08
v -0.3 0.5 -0.1
v -0.2 0.7 0.2
v -0.2 0.7 0.1
v -0.2 0.8 0.1
v -0.2 0.9 0.2
v -0.2 0.9 0.1
v -0.2 1 0.2
v -0.2 1 0.1
v -0.1 0 -2.98023e-08
v -0.1 0 -0.1
v -0.1 0.2 -2.98023e-08
v -0.1 0.2 -0.1
v -0.1 0.3 -2.98023e-08
v -0.1 0.3 -0.1
v -0.1 0.6 0.2
v -0.1 0.6 0.1
v -0.1 0.7 0.2
v -0.1 0.7 0.1
v -0.1 0.9 -0.4
v -0.1 0.9 -0.5
v -0.1 1 -0.4
v -0.1 1 -0.5
v 0 0.9 0.2
v 0 0.9 0.1
v 0 1 0.2
v 0 1 0.1
v 0.1 0.1 -0.4
v 0.1 0.1 -0.5
v 0.1 0.2 -0.4
v 0.1 0.2 -0.5
v 0.1 0.3 -0.3
v 0.1 0.3 -0.4
v 0.1 0.4 -0.2
v 0.1 0.4 -0.3
v 0.1 0.4 -0.4
v 0.1 0.5 -0.2
v 0.1 0.5 -0.3
v 0.1 0.5 -0.4
v 0.1 0.6 -0.3
v 0.1 0.6 -0.4
v 0.1 0.7 -0.3
v 0.1 0.7 -0.4
v 0.2 0 -2.98023e-08
v 0.2 0 -0.1
v 0.2 0.2 -2.98023e-08
v 0.2 0.2 -0.1
v 0.2 0.2 -0.4
v 0.2 0.2 -0.5
v 0.2 0.3 -2.98023e-08
v 0.2 0.3 -0.1
v 0.2 0.4 0.1
v 0.2 0.4 -2.98023e-08
v 0.2 0.4 -0.1
v 0.2 0.4 -0.2
v 0.2 0.4 -0.4
v 0.2 0.4 -0.5
v 0.2 0.5 0.1
v 0.2 0.5 -2.98023e-08
v 0.2 0.5 -0.1
v 0.2 0.5 -0.2
v 0.2 0.5 -0.3
v 0.2 0.5 -0.4
v 0.2 0.6 0.2
v 0.2 0.6 0.1
v 0.2 0.6 -2.98023e-08
v 0.2 0.6 -0.1
v 0.2 0.6 -0.3
v 0.2 0.6 -0.4
v 0.2 0.7 0.2
v 0.2 0.7 0.1
v 0.2 0.7 -0.3
v 0.2 0.7 -0.4
v 0.2 0.9 -0.3
v 0.2 0.9 -0.4
v 0.2 0.9 -0.5
v 0.2 1.2 -0.4
v 0.2 1.2 -0.5
v 0.2 1.3 0.1
v 0.2 1.3 -0.2
v 0.2 1.4 0.1
v 0.2 1.4 -0.2
v 0.3 0.1 -0.5
v 0.3 0.1 -0.6
v 0.3 0.2 -0.5
v 0.3 0.2 -0.6
v 0.3 0.3 0.2
v 0.3 0.3 0.1
v 0.3 0.3 -2.98023e-08
v 0.3 0.3 -0.1
v 0.3 0.3 -0.2
v 0.3 0.3 -0.3
v 0.3 0.4 0.2
v 0.3 0.4 0.1
v 0.3 0.4 -2.98023e-08
v 0.3 0.4 -0.1
v 0.3 0.4 -0.2
v 0.3 0.4 -0.3
v 0.3 0.5 0.1
v 0.3 0.5 -2.98023e-08
v 0.3 0.6 -2.98023e-08
v 0.3 0.6 -0.1
v 0.3 0.6 -0.3
v 0.3 0.7 0.2
v 0.3 0.7 0.1
v 0.3 0.7 -2.98023e-08
v 0.3 0.7 -0.1
v 0.3 0.7 -0.2
v 0.3 0.8 -0.2
v 0.3 0.8 -0.3
v 0.3 0.9 0.3
v 0.3 0.9 0.2
v 0.3 0.9 0.1
v 0.3 0.9 -0.3
v 0.3 0.9 -0.4
v 0.3 1 0.3
v 0.3 1 0.2
v 0.3 1.2 0.3
v 0.3 1.2 0.2
v 0.3 1.2 -0.3
v 0.3 1.2 -0.4
v 0.3 1.3 0.3
v 0.3 1.3 0.2
v 0.3 1.3 -0.3
v 0.4 0 -0.5
v 0.4 0 -0.6
v 0.4 0.1 -0.5
v 0.4 0.1 -0.6
v 0.4 0.3 -2.98023e-08
v 0.4 0.3 -0.1
v 0.4 0.4 -2.98023e-08
v 0.4 0.4 -0.1
v 0.4 0.5 -2.98023e-08
v 0.4 0.5 -0.1
v 0.4 0.6 -2.98023e-08
v 0.4 0.6 -0.1
v 0.4 0.7 0.1
v 0.4 0.7 -0.2
v 0.4 0.8 -0.2
v 0.4 0.8 -0.3
v 0.4 0.9 0.2
v 0.4 0.9 0.1
v 0.4 1 0.3
v 0.4 1 0.2
v 0.4 1.2 0.3
v 0.4 1.2 0.2
v 0.4 1.2 -0.3
v 0.5 0.4 -2.98023e-08
v 0.5 0.4 -0.1
v 0.5 0.5 -2.98023e-08
v 0.5 0.5 -0.1
v -0.4 1 0.3
v -0.4 1.2 0.3
v -0.3 0.9 0.3
v -0.3 1 0.3
v -0.3 1.2 0.3
v -0.3 1.3 0.3
v 0 1 0.3
v 0 1.2 0.3
v 0.2 1.1 0.3
v 0.2 1.2 0.3
v 0.3 0.9 0.3
v 0.3 1 0.3
v 0.3 1.1 0.3
v 0.3 1.2 0.3
v 0.3 1.3 0.3
v 0.4 1 0.3
v 0.4 1.2 0.3
v -0.4 0.9 0.2
v -0.4 1 0.2
v -0.3 0.3 0.2
v -0.3 0.4 0.2
v -0.3 0.7 0.2
v -0.3 0.9 0.2
v -0.3 1 0.2
v -0.2 0.3 0.2
v -0.2 0.4 0.2
v -0.2 0.6 0.2
v -0.2 0.7 0.2
v -0.2 0.9 0.2
v -0.1 0.3 0.2
v -0.1 0.4 0.2
v -0.1 0.6 0.2
v -0.1 0.7 0.2
v 0 0.3 0.2
v 0 0.4 0.2
v 0.1 0.3 0.2
v 0.1 0.4 0.2
v 0.1 0.6 0.2
v 0.1 0.7 0.2
v 0.2 0.3 0.2
v 0.2 0.4 0.2
v 0.2 0.6 0.2
v 0.2 0.7 0.2
v 0.2 0.9 0.2
v 0.3 0.3 0.2
v 0.3 0.4 0.2
v 0.3 0.7 0.2
v 0.3 0.9 0.2
v 0.3 1 0.2
v 0.4 0.9 0.2
v 0.4 1 0.2
v -0.4 0.8 0.1
v -0.4 0.9 0.1
v -0.3 0.5 0.1
v -0.3 0.7 0.1
v -0.3 0.8 0.1
v -0.3 0.9 0.1
v -0.2 0.4 0.1
v -0.2 0.5 0.1
v -0.2 0.6 0.1
v -0.2 0.7 0.1
v -0.2 0.8 0.1
v -0.2 0.9 0.1
v -0.2 1 0.1
v -0.2 1.3 0.1
v -0.2 1.4 0.1
v -0.1 0.4 0.1
v -0.1 0.5 0.1
v -0.1 0.6 0.1
v -0.1 0.7 0.1
v -0.1 0.8 0.1
v -0.1 0.9 0.1
v -0.1 1 0.1
v 0 0.4 0.1
v 0 0.6 0.1
v 0 0.9 0.1
v 0 1 0.1
v 0.1 0.4 0.1
v 0.1 0.5 0.1
v 0.1 0.6 0.1
v 0.1 0.7 0.1
v 0.1 0.8 0.1
v 0.1 0.9 0.1
v 0.2 0.4 0.1
v 0.2 0.5 0.1
v 0.2 0.6 0.1
v 0.2 0.7 0.1
v 0.2 0.8 0.1
v 0.2 0.9 0.1
v 0.2 1 0.1
v 0.2 1.3 0.1
v 0.2 1.4 0.1
v 0.3 0.5 0.1
v 0.3 0.7 0.1
v 0.3 0.9 0.1
v 0.4 0.7 0.1
v 0.4 0.9 0.1
v -0.5 0.3 -2.98023e-08
v -0.5 0.4 -2.98023e-08
v -0.4 0.3 -2.98023e-08
v -0.4 0.4 -2.98023e-08
v -0.4 0.5 -2.98023e-08
v -0.3 0.4 -2.98023e-08
v -0.3 0.5 -2.98023e-08
v -0.3 0.7 -2.98023e-08
v -0.3 0.8 -2.98023e-08
v -0.2 0 -2.98023e-08
v -0.2 0.2 -2.98023e-08
v -0.2 0.3 -2.98023e-08
v -0.2 0.7 -2.98023e-08
v -0.2 0.8 -2.98023e-08
v -0.1 0 -2.98023e-08
v -0.1 0.2 -2.98023e-08
v -0.1 0.3 -2.98023e-08
v 0.1 0 -2.98023e-08
v 0.1 0.2 -2.98023e-08
v 0.1 0.3 -2.98023e-08
v 0.2 0 -2.98023e-08
v 0.2 0.2 -2.98023e-08
v 0.2 0.3 -2.98023e-08
v 0.3 0.3 -2.98023e-08
v 0.3 0.4 -2.98023e-08
v 0.3 0.5 -2.98023e-08
v 0.3 0.6 -2.98023e-08
v 0.4 0.3 -2.98023e-08
v 0.4 0.4 -2.98023e-08
v 0.4 0.5 -2.98023e-08
v 0.4 0.6 -2.98023e-08
v 0.5 0.4 -2.98023e-08
v 0.5 0.5 -2.98023e-08
v -0.1 0.2 -0.4
v -0.1 0.3 -0.4
v 0 0.1 -0.4
v 0 0.2 -0.4
v 0.1 0.1 -0.4
v 0.1 0.2 -0.4
v 0.1 0.3 -0.4
v 0.1 0.4 -0.4
v 0.2 0.2 -0.4
v 0.2 0.4 -0.4
v 0.1 0.1 -0.5
v 0.1 0.2 -0.5
v 0.2 0 -0.5
v 0.2 0.1 -0.5
v 0.2 0.2 -0.5
v 0.3 0.1 -0.5
v 0.3 0.2 -0.5
v 0.4 0 -0.5
v 0.4 0.1 -0.5
v -0.2 0.9 0.2
v -0.2 1 0.2
v -0.1 0.9 0.2
v -0.1 1 0.2
v 0 0.9 0.2
v 0 1 0.2
v 0.2 0.9 0.2
v 0.2 1 0.2
v -0.3 0.7 0.1
v -0.3 0.8 0.1
v -0.2 0.7 0.1
v -0.2 0.8 0.1
v 0.2 0.5 -2.98023e-08
v 0.2 0.6 -2.98023e-08
v 0.3 0.5 -2.98023e-08
v 0.3 0.6 -2.98023e-08
v -0.5 0.3 -0.1
v -0.5 0.4 -0.1
v -0.4 0.3 -0.1
v -0.4 0.4 -0.1
v -0.4 0.5 -0.1
v -0.3 0.4 -0.1
v -0.3 0.5 -0.1
v -0.3 0.6 -0.1
v -0.2 0 -0.1
v -0.2 0.2 -0.1
v -0.2 0.3 -0.1
v -0.2 0.5 -0.1
v -0.2 0.6 -0.1
v -0.1 0 -0.1
v -0.1 0.2 -0.1
v -0.1 0.3 -0.1
v 0.1 0 -0.1
v 0.1 0.2 -0.1
v 0.1 0.3 -0.1
v 0.2 0 -0.1
v 0.2 0.2 -0.1
v 0.2 0.3 -0.1
v 0.3 0.3 -0.1
v 0.3 0.4 -0.1
v 0.3 0.5 -0.1
v 0.3 0.6 -0.1
v 0.4 0.3 -0.1
v 0.4 0.4 -0.1
v 0.4 0.5 -0.1
v 0.4 0.6 -0.1
v 0.5 0.4 -0.1
v 0.5 0.5 -0.1
v -0.4 0.8 -0.2
v -0.4 0.9 -0.2
v -0.3 0.6 -0.2
v -0.3 0.7 -0.2
v -0.3 0.8 -0.2
v -0.3 0.9 -0.2
v -0.2 0.4 -0.2
v -0.2 0.5 -0.2
v -0.2 0.6 -0.2
v -0.2 0.7 -0.2
v -0.2 1.3 -0.2
v -0.2 1.4 -0.2
v -0.1 0.4 -0.2
v -0.1 0.5 -0.2
v 0.1 0.4 -0.2
v 0.1 0.5 -0.2
v 0.2 0.4 -0.2
v 0.2 0.5 -0.2
v 0.2 1.3 -0.2
v 0.2 1.4 -0.2
v 0.3 0.7 -0.2
v 0.3 0.8 -0.2
v 0.4 0.7 -0.2
v 0.4 0.8 -0.2
v -0.4 0.9 -0.3
v -0.4 1.2 -0.3
v -0.3 0.3 -0.3
v -0.3 0.4 -0.3
v -0.3 0.7 -0.3
v -0.3 0.9 -0.3
v -0.3 1.2 -0.3
v -0.3 1.3 -0.3
v -0.2 0.3 -0.3
v -0.2 0.4 -0.3
v -0.2 0.5 -0.3
v -0.2 0.6 -0.3
v -0.2 0.7 -0.3
v -0.2 0.9 -0.3
v -0.1 0.3 -0.3
v -0.1 0.4 -0.3
v -0.1 0.5 -0.3
v -0.1 0.6 -0.3
v -0.1 0.7 -0.3
v 0.1 0.3 -0.3
v 0.1 0.4 -0.3
v 0.1 0.6 -0.3
v 0.1 0.7 -0.3
v 0.2 0.3 -0.3
v 0.2 0.4 -0.3
v 0.2 0.6 -0.3
v 0.2 0.7 -0.3
v 0.2 0.9 -0.3
v 0.3 0.3 -0.3
v 0.3 0.4 -0.3
v 0.3 0.6 -0.3
v 0.3 0.8 -0.3
v 0.3 0.9 -0.3
v 0.3 1.2 -0.3
v 0.3 1.3 -0.3
v 0.4 0.8 -0.3
v 0.4 1.2 -0.3
v -0.3 0.9 -0.4
v -0.3 1.2 -0.4
v -0.2 0.7 -0.4
v -0.2 0.9 -0.4
v -0.2 1.2 -0.4
v -0.1 0.4 -0.4
v -0.1 0.5 -0.4
v -0.1 0.6 -0.4
v -0.1 0.7 -0.4
v -0.1 0.9 -0.4
v -0.1 1 -0.4
v 0.1 0.4 -0.4
v 0.1 0.5 -0.4
v 0.1 0.6 -0.4
v 0.1 0.7 -0.4
v 0.1 0.9 -0.4
v 0.1 1 -0.4
v 0.2 0.5 -0.4
v 0.2 0.6 -0.4
v 0.2 0.7 -0.4
v 0.2 0.9 -0.4
v 0.2 1.2 -0.4
v 0.3 0.9 -0.4
v 0.3 1.2 -0.4
v -0.2 0.9 -0.5
v -0.2 1.2 -0.5
v -0.1 0.2 -0.5
v -0.1 0.4 -0.5
v -0.1 0.9 -0.5
v -0.1 1 -0.5
v 0 0.2 -0.5
v 0.1 0.9 -0.5
v 0.1 1 -0.5
v 0.2 0.2 -0.5
v 0.2 0.4 -0.5
v 0.2 0.9 -0.5
v 0.2 1.2 -0.5
v 0 0.1 -0.6
v 0 0.2 -0.6
v 0.2 0 -0.6
v 0.2 0.1 -0.6
v 0.3 0.1 -0.6
v 0.3 0.2 -0.6
v 0.4 0 -0.6
v 0.4 0.1 -0.6
v -0.2 0 -2.98023e-08
v -0.1 0 -2.98023e-08
v 0.1 0 -2.98023e-08
v 0.2 0 -2.98023e-08
v -0.2 0 -0.1
v -0.1 0 -0.1
v 0.1 0 -0.1
v 0.2 0 -0.1
v 0.2 0 -0.5
v 0.4 0 -0.5
v 0.2 0 -0.6
v 0.4 0 -0.6
v 0 0.1 -0.4
v 0.1 0.1 -0.4
v 0.1 0.1 -0.5
v 0.2 0.1 -0.5
v 0 0.1 -0.6
v 0.2 0.1 -0.6
v -0.1 0.2 -0.4
v 0 0.2 -0.4
v 0.1 0.2 -0.4
v 0.2 0.2 -0.4
v -0.1 0.2 -0.5
v 0 0.2 -0.5
v 0.1 0.2 -0.5
v 0.2 0.2 -0.5
v -0.3 0.3 0.2
v -0.2 0.3 0.2
v -0.1 0.3 0.2
v 0 0.3 0.2
v 0.1 0.3 0.2
v 0.2 0.3 0.2
v 0.3 0.3 0.2
v -0.3 0.3 0.1
v -0.2 0.3 0.1
v 0.2 0.3 0.1
v 0.3 0.3 0.1
v -0.5 0.3 -2.98023e-08
v -0.4 0.3 -2.98023e-08
v -0.3 0.3 -2.98023e-08
v -0.2 0.3 -2.98023e-08
v -0.1 0.3 -2.98023e-08
v 0.1 0.3 -2.98023e-08
v 0.2 0.3 -2.98023e-08
v 0.3 0.3 -2.98023e-08
v 0.4 0.3 -2.98023e-08
v -0.5 0.3 -0.1
v -0.4 0.3 -0.1
v -0.3 0.3 -0.1
v -0.2 0.3 -0.1
v -0.1 0.3 -0.1
v 0.1 0.3 -0.1
v 0.2 0.3 -0.1
v 0.3 0.3 -0.1
v 0.4 0.3 -0.1
v -0.3 0.3 -0.2
v -0.2 0.3 -0.2
v 0.2 0.3 -0.2
v 0.3 0.3 -0.2
v -0.3 0.3 -0.3
v -0.2 0.3 -0.3
v -0.1 0.3 -0.3
v 0 0.3 -0.3
v 0.1 0.3 -0.3
v 0.2 0.3 -0.3
v 0.3 0.3 -0.3
v -0.1 0.3 -0.4
v 0.1 0.3 -0.4
v -0.4 0.4 -2.98023e-08
v -0.3 0.4 -2.98023e-08
v 0.4 0.4 -2.98023e-08
v 0.5 0.4 -2.98023e-08
v -0.4 0.4 -0.1
v -0.3 0.4 -0.1
v 0.4 0.4 -0.1
v 0.5 0.4 -0.1
v -0.3 0.5 0.1
v -0.2 0.5 0.1
v 0.2 0.5 0.1
v 0.3 0.5 0.1
v -0.3 0.5 -2.98023e-08
v -0.2 0.5 -2.98023e-08
v 0.2 0.5 -2.98023e-08
v 0.3 0.5 -2.98023e-08
v 0.4 0.5 -2.98023e-08
v -0.3 0.5 -0.1
v -0.2 0.5 -0.1
v 0.3 0.5 -0.1
v 0.4 0.5 -0.1
v -0.2 0.5 -0.2
v -0.1 0.5 -0.2
v 0.1 0.5 -0.2
v 0.2 0.5 -0.2
v -0.2 0.5 -0.3
v -0.1 0.5 -0.3
v 0.1 0.5 -0.3
v 0.2 0.5 -0.3
v 0.1 0.5 -0.4
v 0.2 0.5 -0.4
v -0.2 0.6 0.2
v -0.1 0.6 0.2
v 0.1 0.6 0.2
v 0.2 0.6 0.2
v -0.2 0.6 0.1
v -0.1 0.6 0.1
v 0.1 0.6 0.1
v 0.2 0.6 0.1
v 0.2 0.6 -2.98023e-08
v 0.3 0.6 -2.98023e-08
v -0.3 0.6 -0.1
v -0.2 0.6 -0.1
v 0.2 0.6 -0.1
v 0.3 0.6 -0.1
v -0.3 0.6 -0.2
v -0.2 0.6 -0.2
v 0.2 0.6 -0.3
v 0.3 0.6 -0.3
v -0.3 0.7 0.2
v -0.2 0.7 0.2
v 0.2 0.7 0.2
v 0.3 0.7 0.2
v -0.3 0.7 0.1
v -0.2 0.7 0.1
v 0.2 0.7 0.1
v 0.3 0.7 0.1
v 0.4 0.7 0.1
v 0.3 0.7 -2.98023e-08
v 0.3 0.7 -0.1
v -0.3 0.7 -0.2
v -0.2 0.7 -0.2
v 0.3 0.7 -0.2
v 0.4 0.7 -0.2
v -0.3 0.7 -0.3
v -0.2 0.7 -0.3
v -0.1 0.7 -0.3
v 0.1 0.7 -0.3
v 0.2 0.7 -0.3
v -0.2 0.7 -0.4
v -0.1 0.7 -0.4
v 0.1 0.7 -0.4
v 0.2 0.7 -0.4
v -0.4 0.8 0.1
v -0.3 0.8 0.1
v -0.2 0.8 0.1
v -0.3 0.8 -2.98023e-08
v -0.2 0.8 -2.98023e-08
v -0.4 0.8 -0.2
v -0.3 0.8 -0.2
v 0.3 0.8 -0.2
v 0.4 0.8 -0.2
v 0.3 0.8 -0.3
v 0.4 0.8 -0.3
v -0.3 0.9 0.3
v 0.3 0.9 0.3
v -0.4 0.9 0.2
v -0.3 0.9 0.2
v -0.2 0.9 0.2
v -0.1 0.9 0.2
v 0 0.9 0.2
v 0.2 0.9 0.2
v 0.3 0.9 0.2
v 0.4 0.9 0.2
v -0.4 0.9 0.1
v -0.3 0.9 0.1
v -0.1 0.9 0.1
v 0 0.9 0.1
v 0.3 0.9 0.1
v 0.4 0.9 0.1
v -0.4 0.9 -0.2
v -0.3 0.9 -0.2
v -0.4 0.9 -0.3
v -0.3 0.9 -0.3
v -0.2 0.9 -0.3
v 0.2 0.9 -0.3
v 0.3 0.9 -0.3
v -0.3 0.9 -0.4
v -0.2 0.9 -0.4
v -0.1 0.9 -0.4
v 0.1 0.9 -0.4
v 0.2 0.9 -0.4
v 0.3 0.9 -0.4
v -0.2 0.9 -0.5
v -0.1 0.9 -0.5
v 0.1 0.9 -0.5
v 0.2 0.9 -0.5
v -0.4 1 0.3
v -0.3 1 0.3
v 0.3 1 0.3
v 0.4 1 0.3
v -0.4 1 0.2
v -0.3 1 0.2
v -0.2 1 0.2
v -0.1 1 0.2
v 0 1 0.2
v 0.2 1 0.2
v 0.3 1 0.2
v 0.4 1 0.2
v -0.2 1 0.1
v -0.1 1 0.1
v 0 1 0.1
v 0.2 1 0.1
v -0.1 1 -0.4
v 0.1 1 -0.4
v -0.1 1 -0.5
v 0.1 1 -0.5
v 0.3 0.1 -0.5
v 0.4 0.1 -0.5
v 0.3 0.1 -0.6
v 0.4 0.1 -0.6
v 0 0.2 -0.5
v 0.2 0.2 -0.5
v 0.3 0.2 -0.5
v 0 0.2 -0.6
v 0.3 0.2 -0.6
v -0.3 0.4 0.2
v -0.2 0.4 0.2
v -0.1 0.4 0.2
v 0 0.4 0.2
v 0.1 0.4 0.2
v 0.2 0.4 0.2
v 0.3 0.4 0.2
v -0.3 0.4 0.1
v -0.2 0.4 0.1
v -0.1 0.4 0.1
v 0 0.4 0.1
v 0.1 0.4 0.1
v 0.2 0.4 0.1
v 0.3 0.4 0.1
v -0.5 0.4 -2.98023e-08
v -0.4 0.4 -2.98023e-08
v -0.3 0.4 -2.98023e-08
v -0.2 0.4 -2.98023e-08
v 0.2 0.4 -2.98023e-08
v 0.3 0.4 -2.98023e-08
v 0.4 0.4 -2.98023e-08
v -0.5 0.4 -0.1
v -0.4 0.4 -0.1
v -0.3 0.4 -0.1
v -0.2 0.4 -0.1
v 0.2 0.4 -0.1
v 0.3 0.4 -0.1
v 0.4 0.4 -0.1
v -0.3 0.4 -0.2
v -0.2 0.4 -0.2
v -0.1 0.4 -0.2
v 0.1 0.4 -0.2
v 0.2 0.4 -0.2
v 0.3 0.4 -0.2
v -0.3 0.4 -0.3
v -0.2 0.4 -0.3
v -0.1 0.4 -0.3
v 0.1 0.4 -0.3
v 0.2 0.4 -0.3
v 0.3 0.4 -0.3
v -0.1 0.4 -0.4
v 0.1 0.4 -0.4
v 0.2 0.4 -0.4
v -0.1 0.4 -0.5
v 0.2 0.4 -0.5
v -0.4 0.5 -2.98023e-08
v -0.3 0.5 -2.98023e-08
v 0.4 0.5 -2.98023e-08
v 0.5 0.5 -2.98023e-08
v -0.4 0.5 -0.1
v -0.3 0.5 -0.1
v 0.4 0.5 -0.1
v 0.5 0.5 -0.1
v 0.3 0.6 -2.98023e-08
v 0.4 0.6 -2.98023e-08
v 0.3 0.6 -0.1
v 0.4 0.6 -0.1
v 0.1 0.6 -0.3
v 0.2 0.6 -0.3
v 0.1 0.6 -0.4
v 0.2 0.6 -0.4
v -0.2 0.7 0.2
v -0.1 0.7 0.2
v 0.1 0.7 0.2
v 0.2 0.7 0.2
v -0.3 0.7 0.1
v -0.2 0.7 0.1
v -0.1 0.7 0.1
v 0.1 0.7 0.1
v 0.2 0.7 0.1
v -0.3 0.7 -2.98023e-08
v -0.2 0.7 -2.98023e-08
v -0.4 1.2 0.3
v -0.3 1.2 0.3
v 0.3 1.2 0.3
v 0.4 1.2 0.3
v -0.4 1.2 0.2
v -0.3 1.2 0.2
v 0.3 1.2 0.2
v 0.4 1.2 0.2
v -0.4 1.2 -0.3
v -0.3 1.2 -0.3
v 0.3 1.2 -0.3
v 0.4 1.2 -0.3
v -0.3 1.2 -0.4
v -0.2 1.2 -0.4
v 0.2 1.2 -0.4
v 0.3 1.2 -0.4
v -0.2 1.2 -0.5
v 0.2 1.2 -0.5
v -0.3 1.3 0.3
v 0.3 1.3 0.3
v -0.3 1.3 0.2
v 0.3 1.3 0.2
v -0.2 1.3 0.1
v 0.2 1.3 0.1
v -0.2 1.3 -0.2
v 0.2 1.3 -0.2
v -0.3 1.3 -0.3
v 0.3 1.3 -0.3
v -0.2 1.4 0.1
v 0.2 1.4 0.1
v -0.2 1.4 -0.2
v 0.2 1.4 -0.2

# faces
f 3/3/1 2/3/1 1/3/1
f 4/3/1 2/3/1 3/3/1
f 7/6/1 6/6/1 5/6/1
f 8/6/1 6/6/1 7/6/1
f 12/1/1 10/1/1 9/1/1
f 13/1/1 10/1/1 12/1/1
f 16/1/1 12/1/1 11/1/1
f 16/1/1 14/1/1 13/1/1
f 16/1/1 13/1/1 12/1/1
f 17/6/1 16/6/1 15/6/1
f 18/1/1 14/1/1 16/1/1
f 18/6/1 16/6/1 17/6/1
f 19/1/1 14/1/1 18/1/1
f 26/6/1 21/6/1 20/6/1
f 27/2/1 22/2/1 21/2/1
f 27/6/1 21/6/1 26/6/1
f 28/6/1 23/6/1 22/6/1
f 28/2/1 22/2/1 27/2/1
f 29/2/1 24/2/1 23/2/1
f 29/6/1 23/6/1 28/6/1
f 30/6/1 25/6/1 24/6/1
f 30/2/1 24/2/1 29/2/1
f 31/6/1 25/6/1 30/6/1
f 35/1/1 33/1/1 32/1/1
f 35/3/1 34/3/1 33/3/1
f 36/3/1 34/3/1 35/3/1
f 39/1/1 35/1/1 32/1/1
f 40/6/1 36/6/1 35/6/1
f 40/1/1 35/1/1 39/1/1
f 41/1/1 37/1/1 36/1/1
f 41/6/1 36/6/1 40/6/1
f 42/1/1 37/1/1 41/1/1
f 44/1/1 39/1/1 38/1/1
f 45/1/1 43/1/1 42/1/1
f 45/1/1 42/1/1 41/1/1
f 45/1/1 41/1/1 40/1/1
f 46/1/1 43/1/1 45/1/1
f 48/1/1 44/1/1 38/1/1
f 49/1/1 44/1/1 48/1/1
f 50/1/1 43/1/1 46/1/1
f 51/1/1 43/1/1 50/1/1
f 53/6/1 48/6/1 47/6/1
f 54/6/1 48/6/1 53/6/1
f 57/1/1 52/1/1 51/1/1
f 58/1/1 52/1/1 57/1/1
f 59/6/1 56/6/1 55/6/1
f 60/1/1 57/1/1 56/1/1
f 60/6/1 56/6/1 59/6/1
f 61/1/1 57/1/1 60/1/1
f 64/1/1 63/1/1 62/1/1
f 65/1/1 63/1/1 64/1/1
f 66/3/1 65/3/1 64/3/1
f 67/3/1 65/3/1 66/3/1
f 72/2/1 69/2/1 68/2/1
f 73/6/1 70/6/1 69/6/1
f 73/2/1 69/2/1 72/2/1
f 74/2/1 71/2/1 70/2/1
f 74/6/1 70/6/1 73/6/1
f 75/2/1 71/2/1 74/2/1
f 79/2/1 75/2/1 74/2/1
f 80/3/1 76/3/1 75/3/1
f 80/2/1 75/2/1 79/2/1
f 81/3/1 76/3/1 80/3/1
f 82/1/1 78/1/1 77/1/1
f 83/1/1 78/1/1 82/1/1
f 85/1/1 81/1/1 80/1/1
f 86/1/1 81/1/1 85/1/1
f 88/3/1 84/3/1 83/3/1
f 89/3/1 84/3/1 88/3/1
f 90/1/1 87/1/1 86/1/1
f 91/1/1 87/1/1 90/1/1
f 93/1/1 92/1/1 91/1/1
f 94/1/1 92/1/1 93/1/1
f 97/1/1 96/1/1 95/1/1
f 98/1/1 96/1/1 97/1/1
f 102/1/1 100/1/1 99/1/1
f 104/1/1 102/1/1 101/1/1
f 105/1/1 100/1/1 102/1/1
f 105/1/1 102/1/1 104/1/1
f 106/1/1 100/1/1 105/1/1
f 107/1/1 104/1/1 103/1/1
f 107/1/1 105/1/1 104/1/1
f 108/1/1 105/1/1 107/1/1
f 109/1/1 105/1/1 108/1/1
f 110/3/1 109/3/1 108/3/1
f 111/3/1 109/3/1 110/3/1
f 112/1/1 111/1/1 110/1/1
f 113/1/1 111/1/1 112/1/1
f 116/1/1 115/1/1 114/1/1
f 117/1/1 115/1/1 116/1/1
f 120/1/1 119/1/1 118/1/1
f 121/1/1 119/1/1 120/1/1
f 122/1/1 119/1/1 121/1/1
f 125/1/1 124/1/1 123/1/1
f 126/1/1 124/1/1 125/1/1
f 127/3/1 126/3/1 125/3/1
f 128/3/1 126/3/1 127/3/1
f 131/1/1 130/1/1 129/1/1
f 132/1/1 130/1/1 131/1/1
f 135/1/1 134/1/1 133/1/1
f 136/1/1 134/1/1 135/1/1
f 139/1/1 138/1/1 137/1/1
f 140/1/1 138/1/1 139/1/1
f 143/1/1 142/1/1 141/1/1
f 144/1/1 143/1/1 141/1/1
f 145/1/1 143/1/1 144/1/1
f 146/1/1 145/1/1 144/1/1
f 147/1/1 145/1/1 146/1/1
f 150/3/1 149/3/1 148/3/1
f 151/3/1 149/3/1 150/3/1
f 154/3/1 153/3/1 152/3/1
f 155/3/1 153/3/1 154/3/1
f 156/3/2 157/3/2 158/3/2
f 158/3/2 157/3/2 159/3/2
f 160/6/2 161/6/2 162/6/2
f 162/6/2 161/6/2 163/6/2
f 164/1/2 165/1/2 166/1/2
f 164/1/2 166/1/2 167/1/2
f 167/1/2 166/1/2 168/1/2
f 167/1/2 168/1/2 169/1/2
f 169/1/2 168/1/2 170/1/2
f 171/1/2 172/1/2 173/1/2
f 173/1/2 172/1/2 174/1/2
f 173/3/2 174/3/2 175/3/2
f 175/3/2 174/3/2 176/3/2
f 177/1/2 178/1/2 179/1/2
f 179/1/2 178/1/2 180/1/2
f 181/1/2 182/1/2 183/1/2
f 183/1/2 182/1/2 184/1/2
f 185/1/2 186/1/2 187/1/2
f 187/1/2 186/1/2 188/1/2
f 189/1/2 190/1/2 191/1/2
f 191/1/2 190/1/2 192/1/2
f 193/1/2 194/1/2 196/1/2
f 196/1/2 194/1/2 197/1/2
f 195/1/2 196/1/2 198/1/2
f 196/1/2 197/1/2 198/1/2
f 198/1/2 197/1/2 199/1/2
f 199/1/2 197/1/2 200/1/2
f 201/1/2 202/1/2 203/1/2
f 203/1/2 202/1/2 204/1/2
f 205/1/2 206/1/2 207/1/2
f 207/1/2 206/1/2 208/1/2
f 207/3/2 208/3/2 211/3/2
f 211/3/2 208/3/2 212/3/2
f 209/1/2 210/1/2 217/1/2
f 217/1/2 210/1/2 218/1/2
f 213/6/2 214/6/2 219/6/2
f 214/2/2 215/2/2 220/2/2
f 219/6/2 214/6/2 220/6/2
f 215/6/2 216/6/2 221/6/2
f 220/2/2 215/2/2 221/2/2
f 221/6/2 216/6/2 222/6/2
f 220/6/2 221/6/2 227/6/2
f 221/6/2 222/6/2 227/6/2
f 222/6/2 223/6/2 227/6/2
f 227/6/2 223/6/2 228/6/2
f 223/3/2 224/3/2 229/3/2
f 228/6/2 223/6/2 229/6/2
f 229/3/2 224/3/2 230/3/2
f 225/1/2 226/1/2 231/1/2
f 231/1/2 226/1/2 232/1/2
f 233/1/2 234/1/2 235/1/2
f 235/1/2 234/1/2 236/1/2
f 236/1/2 237/1/2 238/1/2
f 238/1/2 237/1/2 239/1/2
f 240/1/2 241/1/2 242/1/2
f 242/1/2 241/1/2 243/1/2
f 244/1/2 245/1/2 246/1/2
f 246/1/2 245/1/2 247/1/2
f 248/2/2 249/2/2 254/2/2
f 249/6/2 250/6/2 255/6/2
f 254/2/2 249/2/2 255/2/2
f 255/6/2 250/6/2 256/6/2
f 251/6/2 252/6/2 257/6/2
f 252/2/2 253/2/2 258/2/2
f 257/6/2 252/6/2 258/6/2
f 258/2/2 253/2/2 259/2/2
f 260/1/2 261/1/2 262/1/2
f 260/1/2 262/1/2 266/1/2
f 262/6/2 263/6/2 267/6/2
f 266/1/2 262/1/2 267/1/2
f 263/1/2 264/1/2 268/1/2
f 267/6/2 263/6/2 268/6/2
f 268/1/2 264/1/2 269/1/2
f 269/1/2 264/1/2 270/1/2
f 270/1/2 264/1/2 271/1/2
f 265/1/2 266/1/2 273/1/2
f 273/1/2 266/1/2 274/1/2
f 272/6/2 273/6/2 277/6/2
f 277/6/2 273/6/2 278/6/2
f 275/1/2 276/1/2 281/1/2
f 281/1/2 276/1/2 282/1/2
f 279/6/2 280/6/2 283/6/2
f 280/1/2 281/1/2 284/1/2
f 283/6/2 280/6/2 284/6/2
f 284/1/2 281/1/2 285/1/2
f 286/1/2 287/1/2 288/1/2
f 288/1/2 287/1/2 289/1/2
f 290/3/2 291/3/2 292/3/2
f 292/3/2 291/3/2 293/3/2
f 294/3/2 295/3/2 296/3/2
f 296/3/2 295/3/2 297/3/2
f 298/1/2 299/1/2 300/1/2
f 298/1/2 300/1/2 303/1/2
f 300/1/2 301/1/2 303/1/2
f 302/1/2 303/1/2 305/1/2
f 304/6/2 305/6/2 306/6/2
f 305/1/2 303/1/2 307/1/2
f 306/6/2 305/6/2 307/6/2
f 303/1/2 301/1/2 308/1/2
f 307/1/2 303/1/2 308/1/2
f 309/3/2 310/3/2 311/3/2
f 311/3/2 310/3/2 312/3/2
f 316/6/3 314/6/3 313/6/3
f 317/6/3 314/6/3 316/6/3
f 319/6/3 316/6/3 315/6/3
f 319/10/3 317/10/3 316/10/3
f 320/6/3 318/6/3 317/6/3
f 320/10/3 317/10/3 319/10/3
f 321/9/3 320/9/3 319/9/3
f 322/6/3 318/6/3 320/6/3
f 322/9/3 320/9/3 321/9/3
f 323/6/3 319/6/3 315/6/3
f 324/9/3 321/9/3 319/9/3
f 324/6/3 319/6/3 323/6/3
f 325/8/3 322/8/3 321/8/3
f 325/9/3 321/9/3 324/9/3
f 326/6/3 318/6/3 322/6/3
f 326/8/3 322/8/3 325/8/3
f 327/6/3 318/6/3 326/6/3
f 328/6/3 325/6/3 324/6/3
f 328/6/3 326/6/3 325/6/3
f 329/6/3 326/6/3 328/6/3
f 335/1/3 331/1/3 330/1/3
f 336/1/3 331/1/3 335/1/3
f 337/6/3 333/6/3 332/6/3
f 338/6/3 333/6/3 337/6/3
f 340/1/3 335/1/3 334/1/3
f 341/1/3 335/1/3 340/1/3
f 342/2/3 338/2/3 337/2/3
f 343/2/3 338/2/3 342/2/3
f 344/1/3 340/1/3 339/1/3
f 345/1/3 340/1/3 344/1/3
f 346/6/3 343/6/3 342/6/3
f 347/6/3 343/6/3 346/6/3
f 348/2/3 347/2/3 346/2/3
f 349/2/3 347/2/3 348/2/3
f 352/6/3 349/6/3 348/6/3
f 353/6/3 349/6/3 352/6/3
f 354/1/3 351/1/3 350/1/3
f 355/1/3 351/1/3 354/1/3
f 357/2/3 353/2/3 352/2/3
f 358/2/3 353/2/3 357/2/3
f 359/1/3 356/1/3 355/1/3
f 360/1/3 356/1/3 359/1/3
f 362/1/3 361/1/3 360/1/3
f 363/1/3 361/1/3 362/1/3
f 368/1/3 365/1/3 364/1/3
f 369/1/3 365/1/3 368/1/3
f 371/1/3 367/1/3 366/1/3
f 372/1/3 367/1/3 371/1/3
f 373/1/3 367/1/3 372/1/3
f 379/2/3 371/2/3 370/2/3
f 380/1/3 372/1/3 371/1/3
f 380/2/3 371/2/3 379/2/3
f 381/1/3 372/1/3 380/1/3
f 382/3/3 374/3/3 373/3/3
f 383/13/3 375/13/3 374/13/3
f 383/3/3 374/3/3 382/3/3
f 384/1/3 376/1/3 375/1/3
f 384/13/3 375/13/3 383/13/3
f 385/1/3 376/1/3 384/1/3
f 386/6/3 381/6/3 380/6/3
f 386/6/3 380/6/3 379/6/3
f 387/2/3 382/2/3 381/2/3
f 387/6/3 381/6/3 386/6/3
f 388/3/3 383/3/3 382/3/3
f 388/3/3 384/3/3 383/3/3
f 390/2/3 387/2/3 386/2/3
f 391/2/3 387/2/3 390/2/3
f 392/2/3 382/2/3 387/2/3
f 392/2/3 387/2/3 391/2/3
f 393/3/3 388/3/3 382/3/3
f 393/2/3 382/2/3 392/2/3
f 394/3/3 388/3/3 393/3/3
f 395/1/3 389/1/3 388/1/3
f 395/3/3 388/3/3 394/3/3
f 396/6/3 391/6/3 390/6/3
f 397/2/3 392/2/3 391/2/3
f 397/6/3 391/6/3 396/6/3
f 398/2/3 392/2/3 397/2/3
f 399/3/3 394/3/3 393/3/3
f 400/13/3 395/13/3 394/13/3
f 400/3/3 394/3/3 399/3/3
f 401/1/3 389/1/3 395/1/3
f 401/13/3 395/13/3 400/13/3
f 402/1/3 389/1/3 401/1/3
f 403/1/3 378/1/3 377/1/3
f 404/1/3 378/1/3 403/1/3
f 405/1/3 398/1/3 397/1/3
f 405/1/3 399/1/3 398/1/3
f 406/1/3 399/1/3 405/1/3
f 408/1/3 407/1/3 406/1/3
f 409/1/3 407/1/3 408/1/3
f 412/3/3 411/3/3 410/3/3
f 413/3/3 411/3/3 412/3/3
f 415/6/3 414/6/3 413/6/3
f 416/6/3 414/6/3 415/6/3
f 422/1/3 418/1/3 417/1/3
f 423/1/3 418/1/3 422/1/3
f 424/1/3 420/1/3 419/1/3
f 425/3/3 421/3/3 420/3/3
f 425/1/3 420/1/3 424/1/3
f 426/3/3 421/3/3 425/3/3
f 430/1/3 428/1/3 427/1/3
f 431/3/3 429/3/3 428/3/3
f 431/1/3 428/1/3 430/1/3
f 432/3/3 429/3/3 431/3/3
f 437/3/3 434/3/3 433/3/3
f 438/3/3 434/3/3 437/3/3
f 439/3/3 436/3/3 435/3/3
f 440/3/3 436/3/3 439/3/3
f 441/3/3 439/3/3 438/3/3
f 442/3/3 439/3/3 441/3/3
f 446/1/3 444/1/3 443/1/3
f 447/1/3 446/1/3 445/1/3
f 448/1/3 444/1/3 446/1/3
f 448/1/3 446/1/3 447/1/3
f 449/1/3 444/1/3 448/1/3
f 451/1/3 450/1/3 449/1/3
f 451/1/3 449/1/3 448/1/3
f 452/1/3 450/1/3 451/1/3
f 456/1/3 454/1/3 453/1/3
f 457/1/3 454/1/3 456/1/3
f 458/1/3 456/1/3 455/1/3
f 458/1/3 457/1/3 456/1/3
f 459/1/3 457/1/3 458/1/3
f 460/1/3 458/1/3 455/1/3
f 461/1/3 458/1/3 460/1/3
f 462/6/4 463/6/4 464/6/4
f 464/6/4 463/6/4 465/6/4
f 466/6/4 467/6/4 468/6/4
f 468/6/4 467/6/4 469/6/4
f 470/1/4 471/1/4 472/1/4
f 472/1/4 471/1/4 473/1/4
f 474/1/4 475/1/4 476/1/4
f 476/1/4 475/1/4 477/1/4
f 478/3/4 479/3/4 480/3/4
f 480/3/4 479/3/4 481/3/4
f 481/6/4 482/6/4 483/6/4
f 483/6/4 482/6/4 484/6/4
f 484/3/4 485/3/4 489/3/4
f 489/3/4 485/3/4 490/3/4
f 486/1/4 487/1/4 491/1/4
f 487/3/4 488/3/4 492/3/4
f 491/1/4 487/1/4 492/1/4
f 492/3/4 488/3/4 493/3/4
f 494/1/4 495/1/4 497/1/4
f 495/3/4 496/3/4 498/3/4
f 497/1/4 495/1/4 498/1/4
f 498/3/4 496/3/4 499/3/4
f 500/3/4 501/3/4 504/3/4
f 504/3/4 501/3/4 505/3/4
f 502/3/4 503/3/4 506/3/4
f 506/3/4 503/3/4 507/3/4
f 505/3/4 506/3/4 508/3/4
f 508/3/4 506/3/4 509/3/4
f 510/1/4 511/1/4 514/1/4
f 514/1/4 511/1/4 515/1/4
f 512/1/4 513/1/4 518/1/4
f 518/1/4 513/1/4 519/1/4
f 516/2/4 517/2/4 522/2/4
f 522/2/4 517/2/4 523/2/4
f 524/6/4 525/6/4 526/6/4
f 526/6/4 525/6/4 527/6/4
f 520/1/4 521/1/4 528/1/4
f 528/1/4 521/1/4 529/1/4
f 530/1/4 531/1/4 532/1/4
f 532/1/4 531/1/4 533/1/4
f 534/1/4 535/1/4 539/1/4
f 539/1/4 535/1/4 540/1/4
f 536/6/4 537/6/4 542/6/4
f 542/6/4 537/6/4 543/6/4
f 538/1/4 539/1/4 546/1/4
f 546/1/4 539/1/4 547/1/4
f 542/2/4 543/2/4 548/2/4
f 548/2/4 543/2/4 549/2/4
f 544/3/4 545/3/4 550/3/4
f 545/1/4 546/1/4 551/1/4
f 550/3/4 545/3/4 551/3/4
f 551/1/4 546/1/4 552/1/4
f 553/6/4 554/6/4 557/6/4
f 557/6/4 554/6/4 558/6/4
f 555/1/4 556/1/4 559/1/4
f 559/1/4 556/1/4 560/1/4
f 557/2/4 558/2/4 562/2/4
f 562/2/4 558/2/4 563/2/4
f 559/1/4 560/1/4 564/1/4
f 560/1/4 561/1/4 564/1/4
f 564/1/4 561/1/4 565/1/4
f 565/1/4 561/1/4 566/1/4
f 540/1/4 541/1/4 567/1/4
f 567/1/4 541/1/4 568/1/4
f 565/1/4 566/1/4 569/1/4
f 566/1/4 567/1/4 569/1/4
f 569/1/4 567/1/4 570/1/4
f 571/1/4 572/1/4 574/1/4
f 574/1/4 572/1/4 575/1/4
f 573/1/4 574/1/4 579/1/4
f 579/1/4 574/1/4 580/1/4
f 576/1/4 577/1/4 582/1/4
f 577/3/4 578/3/4 583/3/4
f 582/1/4 577/1/4 583/1/4
f 580/1/4 581/1/4 584/1/4
f 583/3/4 578/3/4 584/3/4
f 578/1/4 579/1/4 584/1/4
f 579/1/4 580/1/4 584/1/4
f 584/1/4 581/1/4 585/1/4
f 585/1/4 581/1/4 586/1/4
f 586/1/4 581/1/4 587/1/4
f 583/3/4 584/3/4 588/3/4
f 588/3/4 584/3/4 589/3/4
f 585/1/4 586/1/4 590/1/4
f 590/1/4 586/1/4 591/1/4
f 591/1/4 592/1/4 593/1/4
f 593/1/4 592/1/4 594/1/4
f 595/1/4 596/1/4 599/1/4
f 599/1/4 596/1/4 600/1/4
f 597/1/4 598/1/4 601/1/4
f 600/1/4 596/1/4 603/1/4
f 601/1/4 598/1/4 604/1/4
f 604/1/4 598/1/4 605/1/4
f 602/1/4 603/1/4 606/1/4
f 603/1/4 596/1/4 607/1/4
f 606/1/4 603/1/4 607/1/4
f 608/1/4 609/1/4 611/1/4
f 611/1/4 609/1/4 612/1/4
f 610/1/4 611/1/4 612/1/4
f 612/1/4 609/1/4 613/1/4
f 610/1/4 612/1/4 614/1/4
f 614/1/4 612/1/4 615/1/4
f 620/1/5 617/1/5 616/1/5
f 621/1/5 617/1/5 620/1/5
f 622/1/5 619/1/5 618/1/5
f 623/1/5 619/1/5 622/1/5
f 626/1/5 625/1/5 624/1/5
f 627/1/5 625/1/5 626/1/5
f 630/1/5 629/1/5 628/1/5
f 632/1/5 630/1/5 628/1/5
f 632/1/5 631/1/5 630/1/5
f 633/1/5 631/1/5 632/1/5
f 638/1/5 635/1/5 634/1/5
f 639/1/5 635/1/5 638/1/5
f 640/1/5 637/1/5 636/1/5
f 641/1/5 637/1/5 640/1/5
f 649/6/5 643/6/5 642/6/5
f 650/2/5 644/2/5 643/2/5
f 650/6/5 643/6/5 649/6/5
f 651/2/5 648/2/5 647/2/5
f 651/6/5 647/6/5 646/6/5
f 652/2/5 648/2/5 651/2/5
f 655/2/5 650/2/5 649/2/5
f 656/2/5 644/2/5 650/2/5
f 656/2/5 650/2/5 655/2/5
f 657/6/5 645/6/5 644/6/5
f 657/2/5 644/2/5 656/2/5
f 658/2/5 646/2/5 645/2/5
f 658/6/5 651/6/5 646/6/5
f 658/6/5 652/6/5 651/6/5
f 659/6/5 652/6/5 658/6/5
f 660/6/5 652/6/5 659/6/5
f 662/3/5 654/3/5 653/3/5
f 663/3/5 654/3/5 662/3/5
f 664/6/5 656/6/5 655/6/5
f 665/6/5 656/6/5 664/6/5
f 666/6/5 645/6/5 657/6/5
f 667/2/5 658/2/5 645/2/5
f 668/2/5 660/2/5 659/2/5
f 669/3/5 661/3/5 660/3/5
f 669/2/5 660/2/5 668/2/5
f 670/3/5 661/3/5 669/3/5
f 671/2/5 665/2/5 664/2/5
f 671/2/5 666/2/5 665/2/5
f 672/2/5 666/2/5 671/2/5
f 673/6/5 669/6/5 668/6/5
f 673/6/5 668/6/5 667/6/5
f 674/6/5 669/6/5 673/6/5
f 675/6/5 672/6/5 671/6/5
f 676/2/5 666/2/5 672/2/5
f 676/6/5 672/6/5 675/6/5
f 677/6/5 645/6/5 666/6/5
f 677/2/5 666/2/5 676/2/5
f 678/2/5 667/2/5 645/2/5
f 678/6/5 645/6/5 677/6/5
f 679/6/5 673/6/5 667/6/5
f 679/2/5 667/2/5 678/2/5
f 680/2/5 674/2/5 673/2/5
f 680/6/5 673/6/5 679/6/5
f 681/2/5 674/2/5 680/2/5
f 682/1/5 679/1/5 678/1/5
f 682/1/5 678/1/5 677/1/5
f 683/1/5 679/1/5 682/1/5
f 688/6/5 685/6/5 684/6/5
f 689/6/5 685/6/5 688/6/5
f 690/3/5 687/3/5 686/3/5
f 691/3/5 687/3/5 690/3/5
f 696/1/5 693/1/5 692/1/5
f 697/1/5 693/1/5 696/1/5
f 698/1/5 695/1/5 694/1/5
f 699/1/5 695/1/5 698/1/5
f 701/3/5 697/3/5 696/3/5
f 702/3/5 697/3/5 701/3/5
f 703/3/5 700/3/5 699/3/5
f 704/3/5 700/3/5 703/3/5
f 709/3/5 706/3/5 705/3/5
f 710/3/5 706/3/5 709/3/5
f 711/6/5 708/6/5 707/6/5
f 712/6/5 708/6/5 711/6/5
f 713/3/5 712/3/5 711/3/5
f 714/3/5 712/3/5 713/3/5
f 719/1/5 716/1/5 715/1/5
f 720/1/5 716/1/5 719/1/5
f 721/1/5 718/1/5 717/1/5
f 722/1/5 718/1/5 721/1/5
f 727/6/5 724/6/5 723/6/5
f 728/6/5 724/6/5 727/6/5
f 729/1/5 726/1/5 725/1/5
f 730/1/5 726/1/5 729/1/5
f 731/1/5 728/1/5 727/1/5
f 732/1/5 728/1/5 731/1/5
f 737/1/5 734/1/5 733/1/5
f 738/1/5 734/1/5 737/1/5
f 739/1/5 736/1/5 735/1/5
f 740/1/5 736/1/5 739/1/5
f 742/1/5 741/1/5 740/1/5
f 743/1/5 741/1/5 742/1/5
f 746/1/5 741/1/5 743/1/5
f 747/1/5 741/1/5 746/1/5
f 748/1/5 745/1/5 744/1/5
f 749/1/5 745/1/5 748/1/5
f 753/1/5 750/1/5 749/1/5
f 754/1/5 750/1/5 753/1/5
f 755/1/5 752/1/5 751/1/5
f 756/1/5 752/1/5 755/1/5
f 760/1/5 758/1/5 757/1/5
f 760/4/5 759/4/5 758/4/5
f 761/4/5 759/4/5 760/4/5
f 762/1/5 760/1/5 757/1/5
f 763/1/5 760/1/5 762/1/5
f 766/1/5 765/1/5 764/1/5
f 767/1/5 765/1/5 766/1/5
f 771/6/5 769/6/5 768/6/5
f 772/6/5 769/6/5 771/6/5
f 773/6/5 769/6/5 772/6/5
f 774/6/5 769/6/5 773/6/5
f 775/6/5 769/6/5 774/6/5
f 776/6/5 769/6/5 775/6/5
f 778/1/5 771/1/5 770/1/5
f 779/1/5 771/1/5 778/1/5
f 780/1/5 774/1/5 773/1/5
f 781/1/5 774/1/5 780/1/5
f 782/1/5 777/1/5 776/1/5
f 783/1/5 777/1/5 782/1/5
f 786/1/5 785/1/5 784/1/5
f 787/1/5 785/1/5 786/1/5
f 791/1/5 788/1/5 787/1/5
f 792/1/5 788/1/5 791/1/5
f 795/1/5 790/1/5 789/1/5
f 796/1/5 790/1/5 795/1/5
f 797/1/5 793/1/5 792/1/5
f 798/1/5 793/1/5 797/1/5
f 799/1/5 795/1/5 794/1/5
f 800/1/5 795/1/5 799/1/5
f 805/6/5 802/6/5 801/6/5
f 806/6/5 802/6/5 805/6/5
f 811/6/5 804/6/5 803/6/5
f 812/6/5 804/6/5 811/6/5
f 813/11/5 808/11/5 807/11/5
f 814/11/5 808/11/5 813/11/5
f 815/11/5 810/11/5 809/11/5
f 816/11/5 810/11/5 815/11/5
f 819/1/5 818/1/5 817/1/5
f 820/1/5 818/1/5 819/1/5
f 821/1/6 822/1/6 823/1/6
f 823/1/6 822/1/6 824/1/6
f 825/1/6 826/1/6 828/1/6
f 826/1/6 827/1/6 828/1/6
f 828/1/6 827/1/6 829/1/6
f 830/6/6 831/6/6 837/6/6
f 831/2/6 832/2/6 838/2/6
f 837/6/6 831/6/6 838/6/6
f 832/6/6 833/6/6 839/6/6
f 838/2/6 832/2/6 839/2/6
f 833/2/6 834/2/6 840/2/6
f 839/6/6 833/6/6 840/6/6
f 834/6/6 835/6/6 841/6/6
f 840/2/6 834/2/6 841/2/6
f 835/2/6 836/2/6 842/2/6
f 841/6/6 835/6/6 842/6/6
f 842/2/6 836/2/6 843/2/6
f 837/2/6 838/2/6 846/2/6
f 846/2/6 838/2/6 847/2/6
f 842/6/6 843/6/6 848/6/6
f 848/6/6 843/6/6 849/6/6
f 844/3/6 845/3/6 851/3/6
f 851/3/6 845/3/6 852/3/6
f 846/6/6 847/6/6 853/6/6
f 853/6/6 847/6/6 854/6/6
f 848/2/6 849/2/6 855/2/6
f 849/3/6 850/3/6 856/3/6
f 855/2/6 849/2/6 856/2/6
f 856/3/6 850/3/6 857/3/6
f 853/2/6 854/2/6 858/2/6
f 858/2/6 854/2/6 859/2/6
f 855/6/6 856/6/6 862/6/6
f 862/6/6 856/6/6 863/6/6
f 858/6/6 859/6/6 864/6/6
f 859/2/6 860/2/6 865/2/6
f 864/6/6 859/6/6 865/6/6
f 865/2/6 860/2/6 866/2/6
f 861/6/6 862/6/6 867/6/6
f 862/2/6 863/2/6 868/2/6
f 867/6/6 862/6/6 868/6/6
f 868/2/6 863/2/6 869/2/6
f 870/1/6 871/1/6 873/1/6
f 871/1/6 872/1/6 873/1/6
f 873/1/6 872/1/6 874/1/6
f 875/6/6 876/6/6 879/6/6
f 879/6/6 876/6/6 880/6/6
f 877/3/6 878/3/6 881/3/6
f 881/3/6 878/3/6 882/3/6
f 883/3/6 884/3/6 885/3/6
f 885/3/6 884/3/6 886/3/6
f 887/3/6 888/3/6 889/3/6
f 889/3/6 888/3/6 890/3/6
f 891/1/6 892/1/6 896/1/6
f 896/1/6 892/1/6 897/1/6
f 893/1/6 894/1/6 898/1/6
f 898/1/6 894/1/6 899/1/6
f 895/1/6 896/1/6 900/1/6
f 900/1/6 896/1/6 901/1/6
f 902/6/6 903/6/6 906/6/6
f 906/6/6 903/6/6 907/6/6
f 904/6/6 905/6/6 908/6/6
f 908/6/6 905/6/6 909/6/6
f 906/1/6 907/1/6 910/1/6
f 910/1/6 907/1/6 911/1/6
f 908/1/6 909/1/6 912/1/6
f 912/1/6 909/1/6 913/1/6
f 911/1/6 912/1/6 914/1/6
f 914/1/6 912/1/6 915/1/6
f 915/1/6 912/1/6 916/1/6
f 916/1/6 912/1/6 917/1/6
f 915/1/6 916/1/6 918/1/6
f 918/1/6 916/1/6 919/1/6
f 920/6/6 921/6/6 922/6/6
f 922/6/6 921/6/6 923/6/6
f 922/1/6 923/1/6 924/1/6
f 924/1/6 923/1/6 925/1/6
f 922/1/6 924/1/6 926/1/6
f 925/1/6 923/1/6 927/1/6
f 922/1/6 926/1/6 928/1/6
f 926/1/6 927/1/6 928/1/6
f 927/1/6 923/1/6 929/1/6
f 928/1/6 927/1/6 929/1/6
f 930/1/6 931/1/6 932/1/6
f 932/1/6 931/1/6 933/1/6
